<svg width="96" height="96" viewBox="0 0 96 96" fill="none" xmlns="http://www.w3.org/2000/svg">
<path d="M47.7656 8C41.7602 8 36.0791 9.36513 30.9609 11.75C30.9274 11.7402 30.8929 11.7285 30.8594 11.7188L30.8281 11.8203C17.2319 18.2181 7.76562 32.0146 7.76562 48C7.76562 70.044 25.7216 88 47.7656 88C69.8096 88 87.7656 70.044 87.7656 48C87.7656 25.956 69.8096 8 47.7656 8ZM47.7656 16C54.6313 16 60.6259 18.6167 65.8281 22.2734C63.3018 24.7839 60.3597 27.0044 57.1172 28.8125C52.8721 23.6929 47.7063 19.6164 42.2734 16.5625C44.0537 16.2315 45.8698 16 47.7656 16ZM31.9062 20.5781C38.1047 22.9104 44.332 26.7372 49.3438 32.125C41.0229 34.6517 31.4909 34.4989 21.9219 30.1016C24.578 26.2705 27.9737 23.0161 31.9062 20.5781ZM71.8203 27.4531C75.2506 31.4742 77.4055 36.3478 78.5078 41.7344C74.0163 41.1816 69.4347 41.443 64.9453 42.3516C64.0334 39.8839 62.9232 37.5522 61.6562 35.3594C65.4303 33.131 68.8649 30.4572 71.8203 27.4531ZM17.8828 37.4844C30.6016 43.5732 43.4998 43.1334 54.4531 38.875C55.5297 40.6783 56.4732 42.589 57.2578 44.6172C44.7233 49.5192 33.9403 59.8382 29.6641 73.7109C21.4567 67.9274 15.7656 58.8412 15.7656 48C15.7656 44.2659 16.7161 40.8115 17.8828 37.4844ZM71.2031 49.5469C73.9453 49.4975 76.6202 49.9692 79.2734 50.4375C78.4727 60.5892 73.1042 69.4199 65.1797 74.7266C67.021 69.4132 68.4404 62.4216 67.6016 53.8984C67.4743 52.6074 67.2774 51.3533 67.0547 50.1172C67.5172 50.0235 67.9741 49.8647 68.4375 49.7891C69.3685 49.6372 70.2891 49.5633 71.2031 49.5469ZM59.3281 52.5391C59.4382 53.2512 59.5683 53.9542 59.6406 54.6875C60.9913 68.4117 56.2212 76.6291 54.3672 79.2891C52.2419 79.7406 50.0394 80 47.7656 80C43.8737 80 40.2498 79.0597 36.8047 77.7969C39.846 66.0204 48.8762 57.0383 59.3281 52.5391Z" fill="white"/>
</svg>
