<svg width="80" height="78" viewBox="0 0 80 78" fill="none" xmlns="http://www.w3.org/2000/svg">
<path d="M35.6 0.399999C17.2 2.4 2.40004 17.2 0.400036 35.2C-1.59996 54 9.20004 70.8 25.6 77.2C26.8 77.6 28 76.8 28 75.2V68.8C28 68.8 26.4 69.2 24.4 69.2C18.8 69.2 16.4 64.4 16 61.6C15.6 60 14.8 58.8 13.6 57.6C12.4 57.2 12 57.2 12 56.8C12 56 13.2 56 13.6 56C16 56 18 58.8 18.8 60C20.8 63.2 23.2 64 24.4 64C26 64 27.2 63.6 28 63.2C28.4 60.4 29.6 57.6 32 56C22.8 54 16 48.8 16 40C16 35.6 18 31.2 20.8 28C20.4 27.2 20 25.2 20 22.4C20 20.8 20 18.4 21.2 16C21.2 16 26.8 16 32.4 21.2C34.4 20.4 37.2 20 40 20C42.8 20 45.6 20.4 48 21.2C53.2 16 59.2 16 59.2 16C60 18.4 60 20.8 60 22.4C60 25.6 59.6 27.2 59.2 28C62 31.2 64 35.2 64 40C64 48.8 57.2 54 48 56C50.4 58 52 61.6 52 65.2V75.6C52 76.8 53.2 78 54.8 77.6C69.6 71.6 80 57.2 80 40.4C80 16.4 59.6 -2.4 35.6 0.399999Z" fill="white"/>
</svg>
