<svg width="96" height="96" viewBox="0 0 96 96" fill="none" xmlns="http://www.w3.org/2000/svg">
<path d="M14.875 96C11.8844 96 9.32512 94.9266 7.19725 92.7799C5.06575 90.6295 4 88.0457 4 85.0286V35.6571C4 33.92 4.38606 32.2743 5.15819 30.72C5.92669 29.1657 6.99063 27.8857 8.35 26.88L40.975 2.19429C41.9719 1.46286 43.0141 0.914285 44.1016 0.548571C45.1891 0.182857 46.3219 0 47.5 0C48.6781 0 49.8109 0.182857 50.8984 0.548571C51.9859 0.914285 53.0281 1.46286 54.025 2.19429L86.65 26.88C88.0094 27.8857 89.0751 29.1657 89.8473 30.72C90.6158 32.2743 91 33.92 91 35.6571V85.0286C91 88.0457 89.9361 90.6295 87.8082 92.7799C85.6767 94.9266 83.1156 96 80.125 96H58.375V57.6H36.625V96H14.875Z" fill="white"/>
</svg>
