<svg width="96" height="96" viewBox="0 0 96 96" fill="none" xmlns="http://www.w3.org/2000/svg">
<path d="M32 12C20.972 12 12 20.972 12 32V64C12 75.028 20.972 84 32 84H64C75.028 84 84 75.028 84 64V32C84 20.972 75.028 12 64 12H32ZM32 20H64C70.616 20 76 25.384 76 32V64C76 70.616 70.616 76 64 76H32C25.384 76 20 70.616 20 64V32C20 25.384 25.384 20 32 20ZM68 24C66.9391 24 65.9217 24.4214 65.1716 25.1716C64.4214 25.9217 64 26.9391 64 28C64 29.0609 64.4214 30.0783 65.1716 30.8284C65.9217 31.5786 66.9391 32 68 32C69.0609 32 70.0783 31.5786 70.8284 30.8284C71.5786 30.0783 72 29.0609 72 28C72 26.9391 71.5786 25.9217 70.8284 25.1716C70.0783 24.4214 69.0609 24 68 24ZM48 28C36.972 28 28 36.972 28 48C28 59.028 36.972 68 48 68C59.028 68 68 59.028 68 48C68 36.972 59.028 28 48 28ZM48 36C54.616 36 60 41.384 60 48C60 54.616 54.616 60 48 60C41.384 60 36 54.616 36 48C36 41.384 41.384 36 48 36Z" fill="white"/>
</svg>
