<svg width="72" height="72" viewBox="0 0 72 72" fill="none" xmlns="http://www.w3.org/2000/svg">
<path d="M64 0H8C3.58 0 0 3.58 0 8V64C0 68.42 3.58 72 8 72H64C68.42 72 72 68.42 72 64V8C72 3.58 68.42 0 64 0ZM24 56H13.908V28H24V56ZM18.776 22.868C15.692 22.868 13.632 20.812 13.632 18.068C13.632 15.324 15.688 13.268 19.116 13.268C22.2 13.268 24.26 15.324 24.26 18.068C24.26 20.812 22.204 22.868 18.776 22.868ZM60 56H50.232V40.696C50.232 36.464 47.628 35.488 46.652 35.488C45.676 35.488 42.42 36.14 42.42 40.696C42.42 41.348 42.42 56 42.42 56H32.328V28H42.42V31.908C43.72 29.628 46.324 28 51.208 28C56.092 28 60 31.908 60 40.696V56Z" fill="white"/>
</svg>
